<svg width="150" height="150" viewBox="0 0 200 200" fill="none" xmlns="http://www.w3.org/2000/svg" class="logo"><g clip-path="url(#a)"><path d="M0 0h200v200H0z"></path><path d="m193.675 132.529-78.35-45.232c-8.464-4.886-22.186-4.886-30.65 0L6.325 132.53c-8.464 4.886-8.464 12.809 0 17.695l78.35 45.232c8.464 4.886 22.186 4.886 30.65 0l78.35-45.232c8.464-4.886 8.464-12.809 0-17.695Z" fill="#F3F3FB"></path><g style="mix-blend-mode:multiply"><path d="M140.224 164.681c5.213-3.009 3.374-9.775-3.956-17.544 12.599-4.504 19.649-9.804 17.55-14.016-.473-.977-1.45-1.874-2.833-2.672l-3.577 2.064c.767.443 1.239.882 1.482 1.337 1.014 2.03-2.766 5.348-9.659 8.442-1.691.765-3.579 1.509-5.565 2.232-2.495-2.329-5.466-4.729-8.828-7.115.718-3.011 1.081-5.913 1.09-8.63 10.29.329 18.049 1.735 21.513 3.735l3.577-2.065c-4.581-2.644-13.72-4.291-25.236-4.643-.642-6.63-3.527-11.888-8.107-14.532l-3.577 2.065c3.448 1.99 5.915 6.47 6.517 12.392-4.689.015-9.7.215-14.882.649a134.502 134.502 0 0 0-12.357-5.097 46.062 46.062 0 0 1 3.785-3.185c5.344-3.989 11.073-6.182 14.589-5.615.788.122 1.566.423 2.332.865l3.577-2.065a13.722 13.722 0 0 0-4.663-1.654c-7.278-1.202-16.427 2.868-24.18 10.132-13.44-4.203-25.11-5.255-30.306-2.255-5.213 3.01-3.374 9.775 3.956 17.544-12.599 4.504-19.648 9.805-17.55 14.016.474.977 1.45 1.875 2.85 2.682 4.58 2.645 13.72 4.291 25.236 4.643.642 6.63 3.526 11.888 8.107 14.532a13.747 13.747 0 0 0 4.662 1.655c7.279 1.202 16.428-2.868 24.181-10.133 13.39 4.193 25.076 5.236 30.272 2.236Zm-10.988-18.696a141.478 141.478 0 0 1-8.584 2.36c.6-1.135 1.167-2.29 1.668-3.482.517-1.183.951-2.377 1.354-3.552 2.029 1.56 3.893 3.118 5.562 4.674Zm-24.71 5.457c-3.464.5-6.849.916-10.14 1.22a127.147 127.147 0 0 1-7.85-4.161 120.889 120.889 0 0 1-7.19-4.503 46.51 46.51 0 0 1 2.064-5.845 48.675 48.675 0 0 1 2.919-5.686 186.411 186.411 0 0 1 9.847-1.704c3.464-.5 6.85-.916 10.141-1.219a127.408 127.408 0 0 1 7.849 4.161 120.727 120.727 0 0 1 7.191 4.503 46.725 46.725 0 0 1-2.064 5.845 48.738 48.738 0 0 1-2.919 5.685 198.43 198.43 0 0 1-9.848 1.704Zm7.465 1.903a50.037 50.037 0 0 1-4.085 5.012 133.187 133.187 0 0 1-8.145-3.221c2.051-.242 4.134-.502 6.2-.81 2.049-.298 4.064-.635 6.03-.981Zm-34.002.129c-.009-1.783.158-3.668.502-5.636a137.99 137.99 0 0 0 4.468 2.709c1.566.904 3.147 1.78 4.743 2.608-3.376.218-6.641.315-9.713.319Zm-2.945-12.608c-2.029-1.56-3.894-3.118-5.562-4.674a141.752 141.752 0 0 1 8.583-2.359 43.129 43.129 0 0 0-1.667 3.482 56.545 56.545 0 0 0-1.354 3.551Zm45.685-12.162c.009 1.783-.158 3.668-.502 5.636a136.224 136.224 0 0 0-4.468-2.709 121.847 121.847 0 0 0-4.743-2.609c3.376-.218 6.641-.314 9.713-.318Zm-21.772-1.662a204.403 204.403 0 0 0-12.215 1.782 50.316 50.316 0 0 1 4.085-5.012c2.679.972 5.411 2.049 8.13 3.23Zm-35.155 2.89c-3.474-4.802-4.112-8.837-1.594-10.291 2.518-1.454 9.523-1.094 17.826.921 2.025.484 4.12 1.082 6.233 1.728a54.534 54.534 0 0 0-6.02 7.803c-4.868 1.041-9.356 2.209-13.417 3.476-1.152-1.239-2.172-2.458-3.028-3.637Zm-13.958 18.405c-1.014-2.03 2.767-5.347 9.66-8.442 1.69-.765 3.578-1.508 5.565-2.232 2.494 2.329 5.465 4.73 8.828 7.115-.719 3.011-1.081 5.913-1.091 8.63-10.29-.329-18.048-1.734-21.513-3.735-.733-.441-1.222-.89-1.449-1.336Zm51.73 15.753c-5.344 3.989-11.074 6.181-14.589 5.614-.789-.121-1.567-.422-2.333-.865-3.448-1.99-5.915-6.47-6.517-12.392 4.69-.015 9.7-.215 14.882-.649a134.518 134.518 0 0 0 12.358 5.097 43.032 43.032 0 0 1-3.801 3.195Zm17.11-2.474c-2.026-.485-4.121-1.083-6.234-1.729a54.452 54.452 0 0 0 6.02-7.802c4.869-1.041 9.357-2.209 13.418-3.476a41.274 41.274 0 0 1 3.044 3.646c3.474 4.802 4.113 8.837 1.595 10.291-2.535 1.444-9.541 1.085-17.843-.93Z" fill="#61DAFB" style="mix-blend-mode:multiply"></path><path d="M92.341 145.034c3.973 2.294 10.297 2.363 14.123.154 3.827-2.21 3.707-5.86-.267-8.154-3.973-2.294-10.296-2.363-14.123-.154-3.826 2.209-3.707 5.859.267 8.154Z" fill="#61DAFB" style="mix-blend-mode:multiply"></path></g><path d="m193.675 50.08-78.35-45.233c-8.464-4.886-22.186-4.886-30.65 0L6.325 50.08c-8.464 4.886-8.464 12.809 0 17.695l78.35 45.232c8.464 4.886 22.186 4.886 30.65 0l78.35-45.232c8.464-4.886 8.464-12.809 0-17.695Z" fill="#43436B"></path><path d="M131.461 78.457c-11.445-6.353-16.213-.901-25.92-4.43-9.861-3.586 10.322-16.702 2.288-21.34-8.035-4.639-30.653 6.364-55.018 8.814l-.693.068 9.12 19.641 51.62 7.986 18.603-10.739Z" fill="#36A2EB"></path><path d="M132.107 78.084c1.065-4.953 4.06-9.625-1.423-12.79-9.703-5.602-22.979 5.01-33.703-1.181C86.256 57.92 102.155 47.44 74 49.667c-8.971.709-17.774 2.193-25.602 3.886L61.237 81.21l51.62 7.987 19.25-11.113Z" fill="#FFCE56"></path><path opacity="0.8" d="M60.096 44.08c13.879-3.76 23.727-7.611 30.757-3.553 10.724 6.191-16.851 25.058-4.593 28.596 12.256 3.538 27.575-6.486 41.875 1.77 2.721 1.571 3.833 4.138 3.85 7.262L112.86 89.196 61.24 81.21 47.403 51.408l12.693-7.327Z" fill="#FE6184"></path><path d="m58.843 82.563-14.7-31.661 40.145-23.176 54.843 8.486 14.699 31.66-40.144 23.176-54.843-8.485Zm-8.256-30.664L63.56 79.84l48.4 7.489 35.427-20.453-12.971-27.941-48.4-7.489-35.428 20.453Z" fill="#D5D5E2"></path></g><defs><clipPath id="a"><path fill="#fff" d="M0 0h200v200H0z"></path></clipPath></defs></svg>